<svg xmlns="http://www.w3.org/2000/svg" viewBox="0 0 24 24" width="24" height="24" fill="none">
  <circle cx="12" cy="12" r="12" fill="#25D366"/>
  <path d="M17.5 14.5c-.2-.1-1.2-.6-1.4-.6-.2 0-.3 0-.5.1-.1.1-.5.4-.6.5-.1.1-.2.1-.4.0-.9-.4-1.8-1.6-2-2.6-.1-.3 0-.5.1-.6.1-.1.2-.3.3-.5.1-.1.0-.3-.1-.4-.2-.2-.4-.5-.6-.7-.2-.2-.5-.4-.8-.6-.3-.2-.5-.3-.9-.2-.2.1-.7.2-1.2 1-.2.3-.7 1.2-.7 2.4 0 1.1.7 2.2 1.6 3.1.9.9 2 1.7 3.3 2.1 1.2.4 2.1.4 2.9.3.3 0 .9-.3 1.1-.6.2-.3.5-.7.5-.8.0-.1.0-.2-.1-.3z" fill="#fff"/>
</svg>
